<svg width="13" height="12" viewBox="0 0 13 12" fill="none" xmlns="http://www.w3.org/2000/svg">
<path fill-rule="evenodd" clip-rule="evenodd" d="M2.38419e-06 5.99997C2.38419e-06 6.19888 0.0790194 6.38965 0.219672 6.5303C0.360324 6.67095 0.55109 6.74997 0.750002 6.74997H9.4395L6.219 9.96897C6.14927 10.0387 6.09396 10.1215 6.05622 10.2126C6.01848 10.3037 5.99906 10.4014 5.99906 10.5C5.99906 10.5986 6.01848 10.6962 6.05622 10.7873C6.09396 10.8785 6.14927 10.9612 6.219 11.031C6.28873 11.1007 6.37152 11.156 6.46263 11.1938C6.55374 11.2315 6.65139 11.2509 6.75 11.2509C6.84862 11.2509 6.94627 11.2315 7.03738 11.1938C7.12849 11.156 7.21127 11.1007 7.281 11.031L11.781 6.53097C11.8508 6.4613 11.9063 6.37854 11.9441 6.28742C11.9819 6.1963 12.0013 6.09862 12.0013 5.99997C12.0013 5.90132 11.9819 5.80364 11.9441 5.71252C11.9063 5.6214 11.8508 5.53864 11.781 5.46897L7.281 0.968971C7.14017 0.828141 6.94917 0.749023 6.75 0.749023C6.55084 0.749023 6.35983 0.828141 6.219 0.968971C6.07817 1.1098 5.99906 1.30081 5.99906 1.49997C5.99906 1.69913 6.07817 1.89014 6.219 2.03097L9.4395 5.24997H0.750002C0.55109 5.24997 0.360324 5.32899 0.219672 5.46964C0.0790194 5.61029 2.38419e-06 5.80106 2.38419e-06 5.99997Z" fill="white"/>
</svg>
