<svg width="224" height="31" viewBox="0 0 224 31" fill="none" xmlns="http://www.w3.org/2000/svg">
<path d="M23.3099 16.4C23.3099 24.2 19.0619 30.659 12.3899 30.659C5.99991 30.66 0.336914 24.64 0.336914 15.391C0.336914 6.1 6.40991 0.0810003 12.3589 0.0810003C13.9699 0.0644972 15.5675 0.375036 17.055 0.993823C18.5425 1.61261 19.8889 2.52678 21.0129 3.681L19.6899 6.221C17.7379 4.2811 15.1383 3.13018 12.3899 2.989C6.50591 2.989 3.07591 8.847 3.07591 15.389C3.07591 22.376 7.07591 27.789 12.4529 27.789C16.9839 27.789 20.1939 23.912 20.6349 19.306H12.0129V16.4H23.3099ZM36.2699 30.66C41.4309 30.66 44.9879 26.417 44.9879 19.551V0.565H42.4699V19.31C42.4699 25.21 39.8569 27.752 36.2699 27.752C32.6519 27.752 30.1339 25.252 30.1339 19.31V0.565H27.6169V19.55C27.6169 26.659 30.9839 30.659 36.2699 30.659V30.66ZM61.6849 16.4V19.307H70.3079C69.8679 23.913 66.6579 27.79 62.1259 27.79C56.7449 27.79 52.7479 22.379 52.7479 15.39C52.7479 8.846 56.1779 2.99 62.0629 2.99C64.8112 3.13183 67.4105 4.28265 69.3629 6.222L70.6839 3.678C69.56 2.52368 68.2136 1.60945 66.726 0.990661C65.2385 0.371867 63.6409 0.061381 62.0299 0.0780001C56.0829 0.0780001 50.0079 6.097 50.0079 15.388C50.0079 24.637 55.6739 30.656 62.0609 30.656C68.7319 30.656 72.9809 24.193 72.9809 16.397L61.6849 16.4ZM88.6299 16.4V19.307H97.2529C96.8129 23.913 93.6029 27.79 89.0709 27.79C83.6889 27.79 79.6939 22.379 79.6939 15.39C79.6939 8.846 83.1239 2.99 89.0079 2.99C91.7563 3.13128 94.3558 4.28218 96.3079 6.222L97.6309 3.678C96.5074 2.52348 95.1611 1.6091 93.6737 0.990291C92.1863 0.371477 90.5888 0.0611104 88.9779 0.0780001C83.0299 0.0780001 76.9559 6.097 76.9559 15.388C76.9559 24.637 82.6199 30.656 89.0079 30.656C95.6809 30.656 99.9289 24.193 99.9289 16.397L88.6299 16.4ZM118.039 30.174V27.266H107.057V16.601H116.937V13.694H107.057V3.473H118.039V0.565H104.539V30.174H118.039ZM124.68 0L124.18 0.162V30.174H126.698V7.716L141.678 30.739L141.991 30.618V0.565H139.47V22.66L124.68 0ZM166.25 30.174V0.565H163.733V13.694H151.4V0.565H148.883V30.174H151.4V16.601H163.736V30.174H166.25ZM186.581 30.174V27.266H175.6V16.601H185.481V13.694H175.6V3.473H186.583V0.565H173.083V30.174H186.581ZM194.826 30.174V0.565H192.309V30.174H194.826ZM223.999 30.174L223.117 0.0810003L222.617 0L212.862 22.3L202.853 0L202.381 0.0810003L201.5 30.174H204.049L204.332 9.21L212.579 27.146H212.925L221.106 9.246L221.452 30.169H224" fill="#211C1C"/>
</svg>
