<svg width="104" height="41" viewBox="0 0 104 41" fill="none" xmlns="http://www.w3.org/2000/svg">
<g style="mix-blend-mode:luminosity">
<path d="M103.369 2.91695H86.1621L87.2221 0.00195312H103.369V2.91695Z" fill="#2C71B8"/>
<path d="M57.499 0.00195312H73.474L74.52 2.92395C74.528 2.92395 57.504 2.92395 57.504 2.92395C57.504 2.92395 57.494 0.00195312 57.499 0.00195312Z" fill="#2C71B8"/>
<path d="M44.812 0.000976562C47.362 0.18982 49.778 1.21642 51.684 2.92098H22.726V0.000976562H44.812Z" fill="#2C71B8"/>
<path d="M20.118 0.000976562H0.000976562V2.91598H20.118V0.000976562Z" fill="#2C71B8"/>
<path d="M103.369 8.38486H84.1909C84.1909 8.38486 85.2369 5.48486 85.2309 5.48486H103.369V8.38486Z" fill="#2C71B8"/>
<path d="M76.4971 8.38877H57.4971V5.48877H75.4561L76.4971 8.38877Z" fill="#2C71B8"/>
<path d="M53.938 5.48389C54.411 6.38342 54.6945 7.37042 54.771 8.38388H22.731V5.48389H53.938Z" fill="#2C71B8"/>
<path d="M20.118 5.48291H0.000976562V8.38291H20.118V5.48291Z" fill="#2C71B8"/>
<path d="M82.229 13.8681L83.282 10.9541H97.682V13.8541L82.229 13.8681Z" fill="#2C71B8"/>
<path d="M77.4221 10.9521L78.4691 13.8681H63.1631V10.9521H77.4221Z" fill="#2C71B8"/>
<path d="M55.0261 10.9521C55.0397 11.9404 54.8966 12.9246 54.6021 13.8681H45.8291V10.9521H55.0261Z" fill="#2C71B8"/>
<path d="M14.2549 10.9658H5.60791V13.8658H14.2549V10.9658Z" fill="#2C71B8"/>
<path d="M37.183 10.9521H28.551V13.8661H37.183V10.9521Z" fill="#2C71B8"/>
<path d="M71.6689 17.0142C71.6689 17.0142 71.6689 19.2202 71.6689 19.2242H63.1689V16.3242H79.3689L80.3689 19.0282C80.3689 19.0282 81.3389 16.3172 81.3409 16.3282H97.6759V19.2282H89.2149V17.0182L88.4319 19.2282H72.4519L71.6689 17.0142Z" fill="#2C71B8"/>
<path d="M28.551 16.3228H53.33C52.6852 17.4247 51.8535 18.4061 50.872 19.2228H28.55C28.55 19.2228 28.551 16.3278 28.551 16.3228Z" fill="#2C71B8"/>
<path d="M14.2549 16.3223H5.60791V19.2233H14.2549V16.3223Z" fill="#2C71B8"/>
<path d="M97.677 21.792H89.215V24.692H97.677V21.792Z" fill="#2C71B8"/>
<path d="M71.6689 21.792H63.1689V24.692H71.6739C71.6739 24.692 71.6779 21.792 71.6689 21.792Z" fill="#2C71B8"/>
<path d="M87.506 21.792C87.468 21.792 86.515 24.692 86.475 24.692L74.422 24.697C74.413 24.697 73.362 21.787 73.361 21.792H87.506Z" fill="#2C71B8"/>
<path d="M28.5499 21.791H50.8289C51.8427 22.6318 52.7363 23.6075 53.485 24.691C53.526 24.691 28.549 24.691 28.549 24.691C28.549 24.691 28.5499 21.794 28.5499 21.791Z" fill="#2C71B8"/>
<path d="M14.2529 24.691V21.791H5.62195V24.691H14.2529Z" fill="#2C71B8"/>
<path d="M97.6761 27.2598H89.2151V30.1608H97.6761V27.2598Z" fill="#2C71B8"/>
<path d="M71.6651 27.2598H63.1621V30.1598H71.6651V27.2598Z" fill="#2C71B8"/>
<path d="M84.496 30.1738C84.496 30.1608 85.54 27.2568 85.556 27.2598H75.31C75.292 27.2598 76.36 30.1598 76.36 30.1598C76.36 30.1598 84.494 30.1858 84.496 30.1738Z" fill="#2C71B8"/>
<path d="M28.55 30.1598C28.55 30.1718 28.55 27.2598 28.55 27.2598H37.3101C37.3101 27.2598 37.3181 30.1598 37.3101 30.1598C37.3021 30.1598 28.55 30.1578 28.55 30.1598Z" fill="#2C71B8"/>
<path d="M54.7149 27.2593C55.0717 28.1897 55.258 29.1768 55.2649 30.1733H45.9839V27.2593H54.7149Z" fill="#2C71B8"/>
<path d="M14.2531 27.2593H5.62207V30.1593H14.2531V27.2593Z" fill="#2C71B8"/>
<path d="M103.369 32.6162H89.2151V35.5182H103.369V32.6162Z" fill="#2C71B8"/>
<path d="M71.666 32.6162H57.498V35.5182H71.666V32.6162Z" fill="#2C71B8"/>
<path d="M82.5919 35.5182H78.2689L77.2319 32.6182H83.5899L82.5919 35.5182Z" fill="#2C71B8"/>
<path d="M0 32.6162V35.5162H20.1C20.108 35.5162 20.091 32.6162 20.1 32.6162H0Z" fill="#2C71B8"/>
<path d="M54.898 32.6162C54.7792 33.6624 54.3947 34.6607 53.781 35.5162H22.73V32.6162H54.898Z" fill="#2C71B8"/>
<path d="M80.633 40.992H80.233L79.223 38.085H81.669L80.633 40.992Z" fill="#2C71B8"/>
<path d="M103.368 38.085H89.2141V41H103.368V38.085Z" fill="#2C71B8"/>
<path d="M22.725 40.9918V38.0918H51.853C49.8003 39.9622 47.123 40.9986 44.346 40.9978L22.73 40.9918" fill="#2C71B8"/>
<path d="M71.666 38.085H57.498V41H71.666V38.085Z" fill="#2C71B8"/>
<path d="M20.1029 38.0978C20.1029 38.0978 20.0939 40.9928 20.1029 40.9928C20.1119 40.9928 0.00293062 41.0048 0.00293062 40.9988C0.00293062 40.9928 0.00793062 38.0898 0.00293062 38.0898C-0.00206938 38.0898 20.0939 38.1068 20.1029 38.0978Z" fill="#2C71B8"/>
</g>
</svg>
