<svg width="238" height="50" viewBox="0 0 238 50" fill="none" xmlns="http://www.w3.org/2000/svg">
<g style="mix-blend-mode:luminosity">
<path fill-rule="evenodd" clip-rule="evenodd" d="M0 0H24.1986V23.8007H0V0Z" fill="#F65314"/>
<path fill-rule="evenodd" clip-rule="evenodd" d="M26.6372 0H50.8358C50.8358 7.93358 50.8358 15.8672 50.8358 23.8007C42.7696 23.8007 34.7034 23.8007 26.6841 23.8007C26.6372 15.8672 26.6372 7.93358 26.6372 0Z" fill="#7FBB41"/>
<path fill-rule="evenodd" clip-rule="evenodd" d="M218.022 9.04043C220.273 7.61054 223.134 7.47216 225.666 8.16405C225.666 9.64006 225.666 11.1161 225.666 12.5921C224.494 12.0847 223.087 11.7157 221.821 12.2231C220.836 12.5921 220.226 13.6069 220.085 14.6216C219.898 15.9131 220.039 17.2046 219.992 18.45C222.524 18.45 225.103 18.45 227.636 18.45C227.636 16.8356 227.636 15.1751 227.636 13.5607C229.371 13.0533 231.106 12.546 232.794 12.0386C232.794 14.1604 232.794 16.3283 232.794 18.4961C234.53 18.45 236.265 18.4961 237.953 18.4961V22.6936C236.218 22.6013 234.483 22.6936 232.748 22.6474C232.748 25.046 232.748 27.4445 232.748 29.843C232.794 31.1807 232.654 32.5183 232.841 33.8559C232.935 34.6401 233.217 35.5164 233.967 35.8855C235.233 36.5773 236.781 36.2545 237.953 35.5164V39.7139C236.452 40.3596 234.811 40.5441 233.17 40.4519C231.622 40.3596 230.028 39.8061 229.043 38.6069C227.87 37.2692 227.589 35.4242 227.589 33.7176C227.589 30.0275 227.589 26.3375 227.589 22.6474C225.057 22.6474 222.477 22.6474 219.945 22.6474C219.945 28.4131 219.945 34.2249 219.945 39.9906H214.739C214.739 34.2249 214.739 28.4131 214.739 22.6474C213.52 22.6013 212.301 22.6474 211.081 22.6474C211.081 21.2637 211.081 19.8799 211.081 18.5423C212.301 18.4962 213.473 18.5423 214.692 18.5423C214.786 16.6973 214.505 14.8522 215.068 13.0533C215.537 11.3928 216.568 9.96294 218.022 9.04043ZM106.08 9.36331C107.112 9.22493 108.284 9.54781 108.988 10.3781C109.785 11.2545 109.972 12.6843 109.363 13.6991C108.706 14.8522 107.205 15.4057 105.892 15.129C104.532 14.8984 103.407 13.653 103.454 12.2692C103.36 10.8393 104.626 9.50168 106.08 9.36331ZM65.9834 10.0091H73.5807C75.9255 15.9131 78.3172 21.8172 80.7089 27.7212C81.3186 29.1973 81.8813 30.6733 82.5379 32.1493C85.5862 24.7692 88.6813 17.3891 91.6827 10.0091C94.1213 9.96294 96.56 10.0091 98.9986 10.0091C98.9986 20.0183 98.9986 29.9814 98.9986 39.9906C97.2165 39.9906 95.4813 39.9906 93.6993 39.9906C93.6993 32.6105 93.6993 25.2305 93.6993 17.8504C93.6993 17.5275 93.6993 17.2046 93.6524 16.8356C93.5586 16.974 93.4648 17.1585 93.371 17.2969C90.3696 24.8615 87.2745 32.3799 84.2731 39.9445C83.0069 39.9906 81.7876 39.9445 80.5213 39.9445C77.4262 32.3799 74.331 24.8153 71.2358 17.2508C71.142 17.1124 71.0482 16.9279 70.9545 16.7895C70.9076 20.0183 70.9545 23.2471 70.9076 26.4759C70.9076 30.95 70.9076 35.4242 70.9076 39.8984C69.2662 39.8984 67.5779 39.8984 65.9365 39.8984C65.9834 29.9814 65.9834 19.9722 65.9834 10.0091ZM120.477 18.4961C123.01 17.8043 125.73 17.8043 128.262 18.4961C128.778 18.6345 129.294 18.819 129.763 19.0958C129.716 20.7563 129.763 22.3707 129.763 24.0312C128.074 22.7858 125.917 21.9556 123.807 22.2323C122.119 22.3707 120.477 23.2471 119.445 24.5847C118.132 26.2452 117.851 28.5054 118.039 30.5349C118.226 32.1493 118.883 33.7637 120.149 34.8246C121.462 35.9777 123.338 36.3928 125.026 36.2545C126.714 36.07 128.356 35.3319 129.716 34.3633C129.716 35.9316 129.716 37.4537 129.716 39.022C127.559 40.2674 125.026 40.5903 122.588 40.498C120.102 40.3596 117.57 39.4371 115.788 37.6843C113.818 35.8393 112.739 33.164 112.645 30.4888C112.505 27.7212 113.114 24.8153 114.709 22.5091C116.022 20.5257 118.132 19.1419 120.477 18.4961ZM177.597 18.1271C180.036 17.712 182.568 18.0349 184.819 18.8652C184.819 20.4334 184.819 22.0017 184.819 23.57C183.225 22.5091 181.255 21.9094 179.332 21.9556C178.348 22.0017 177.269 22.4168 176.847 23.2932C176.472 24.2157 176.753 25.3688 177.597 25.9223C179.098 26.891 180.833 27.3061 182.381 28.1825C183.6 28.8283 184.772 29.7046 185.382 30.9961C186.554 33.3485 186.039 36.4851 184.022 38.2379C182.099 40.0367 179.285 40.498 176.753 40.4057C174.924 40.2674 173.095 39.9445 171.454 39.2065C171.454 37.546 171.454 35.8854 171.454 34.2249C172.861 35.2397 174.502 35.9316 176.19 36.2545C177.363 36.439 178.676 36.439 179.801 35.9316C180.88 35.4242 181.068 33.9021 180.411 33.0257C179.801 32.3338 178.957 31.9187 178.113 31.5497C176.565 30.8578 174.971 30.3043 173.611 29.2895C172.673 28.5515 171.923 27.5367 171.641 26.3836C171.219 24.677 171.36 22.7397 172.345 21.2637C173.517 19.557 175.534 18.4962 177.597 18.1271ZM141.393 18.819C142.847 17.9888 144.676 17.8965 146.223 18.4039C146.223 20.1105 146.223 21.8172 146.223 23.57C145.192 22.9242 143.925 22.6474 142.706 22.7397C141.205 22.9242 140.033 24.0312 139.423 25.3227C138.767 26.6604 138.626 28.2286 138.673 29.7046C138.673 33.1179 138.673 36.5773 138.673 39.9906H133.514C133.514 32.8412 133.514 25.6456 133.514 18.4961C135.25 18.4961 136.938 18.4961 138.673 18.4961C138.673 19.7415 138.673 20.9408 138.673 22.1862C139.283 20.8485 140.08 19.557 141.393 18.819ZM103.876 18.4961C105.611 18.4961 107.346 18.45 109.081 18.4961C109.081 25.6456 109.081 32.795 109.081 39.9906H103.876C103.876 32.8412 103.923 25.6456 103.876 18.4961ZM155.884 18.081C158.417 17.7581 161.043 17.8965 163.388 18.9574C165.404 19.8338 167.045 21.4943 167.937 23.4777C168.921 25.5995 169.156 27.9519 168.968 30.2581C168.828 32.5183 168.077 34.7323 166.67 36.5312C165.217 38.4223 163.012 39.7139 160.668 40.1751C158.651 40.5902 156.541 40.5902 154.524 40.1751C152.132 39.6677 149.881 38.284 148.474 36.3006C146.833 33.9943 146.364 31.0423 146.552 28.2747C146.692 25.9223 147.443 23.57 148.943 21.7249C150.679 19.6493 153.258 18.45 155.884 18.081ZM157.432 22.1862C156.165 22.2323 154.899 22.6936 154.008 23.5238C152.742 24.677 152.132 26.3375 151.992 27.998C151.804 29.7969 151.945 31.7342 152.789 33.3947C153.445 34.6862 154.665 35.7009 156.072 36.07C157.479 36.439 158.979 36.3928 160.339 35.8855C161.512 35.4242 162.403 34.5017 162.919 33.3947C163.669 31.7342 163.763 29.8891 163.669 28.1364C163.528 26.522 163.059 24.8153 161.84 23.6622C160.714 22.5091 159.026 22.0939 157.432 22.1862ZM197.575 18.081C200.201 17.7581 202.968 17.9426 205.313 19.0958C207.377 20.1105 209.018 21.9556 209.815 24.0773C210.425 25.6917 210.659 27.4906 210.612 29.1973C210.612 31.7803 209.909 34.4556 208.268 36.5312C206.72 38.5146 204.328 39.8061 201.843 40.2212C199.404 40.5902 196.825 40.498 194.48 39.6216C192.135 38.6991 190.165 36.8541 189.181 34.5478C188.149 32.1954 188.055 29.5663 188.337 27.0755C188.665 24.5847 189.837 22.1401 191.807 20.4795C193.401 19.1419 195.465 18.3578 197.575 18.081ZM198.982 22.1862C197.528 22.2784 196.121 22.8781 195.183 23.9851C194.152 25.1843 193.73 26.7526 193.589 28.2747C193.448 29.843 193.589 31.5035 194.199 32.9795C194.714 34.2249 195.699 35.2858 196.965 35.8393C198.138 36.3467 199.451 36.439 200.717 36.2545C201.89 36.07 203.015 35.5164 203.765 34.6401C204.516 33.7637 204.938 32.6105 205.125 31.5035C205.36 29.9814 205.36 28.4131 205.079 26.891C204.797 25.5995 204.234 24.308 203.203 23.4777C202.03 22.4168 200.436 22.0939 198.982 22.1862Z" fill="#787878"/>
<path fill-rule="evenodd" clip-rule="evenodd" d="M0 26.1992C8.06621 26.1992 16.1324 26.1992 24.1986 26.1992C24.1986 34.1328 24.1986 42.0664 24.1986 50H0V26.1992Z" fill="#00A1F1"/>
<path fill-rule="evenodd" clip-rule="evenodd" d="M26.6372 26.1992C34.7034 26.1992 42.7696 26.1992 50.8358 26.1992V50H26.6372C26.6372 42.0664 26.6372 34.1328 26.6372 26.1992Z" fill="#FFBB00"/>
</g>
</svg>
