<svg width="148" height="29" viewBox="0 0 148 29" fill="none" xmlns="http://www.w3.org/2000/svg">
<path d="M41.345 0.405295C46.082 -0.533705 51.509 0.817297 54.597 4.6513C56.997 7.3723 57.562 11.1033 57.587 14.5903C49.987 14.6043 42.387 14.6173 34.787 14.5843C34.793 13.9413 34.8 12.6413 34.806 11.9923C41.289 11.7223 47.784 11.9653 54.273 11.8703C53.773 9.2453 52.742 6.5433 50.473 4.9283C48.1359 3.34296 45.2761 2.72346 42.4924 3.19955C39.7088 3.67563 37.2174 5.21037 35.54 7.4823C31.748 12.8823 33.579 21.7703 39.977 24.3883C45.177 26.4983 51.385 24.8193 55.392 21.0883C55.9327 21.815 56.466 22.542 56.992 23.2693C50.965 29.5693 38.951 30.2043 33.302 23.1143C32.101 21.4892 31.2392 19.6391 30.768 17.6741C30.2968 15.7091 30.2257 13.6693 30.559 11.6763C31.0083 8.92811 32.2793 6.38039 34.2046 4.36852C36.1298 2.35665 38.6192 0.974947 41.345 0.405295Z" fill="#5C6064"/>
<path d="M124.316 3.84031C126.004 1.63331 128.816 0.610308 131.502 0.205308C135.659 -0.187692 140.202 -0.238688 143.822 2.12831C145.055 2.8663 146.077 3.90896 146.79 5.15606C147.503 6.40316 147.883 7.81275 147.894 9.24931C146.787 9.26331 145.679 9.26831 144.578 9.26831C144.46 7.59176 143.682 6.03036 142.415 4.92631C139.204 2.49431 134.773 2.48831 130.981 3.30531C128.781 3.77431 126.375 5.30531 126.368 7.77031C126.277 9.73931 128.153 10.9553 129.814 11.5393C134.753 13.2393 140.395 12.4663 145.014 15.1743C149.353 17.5933 148.814 24.8113 144.369 26.8453C141.762 28.0853 138.922 28.7581 136.035 28.8191C133.149 28.8801 130.283 28.328 127.626 27.1993C126.015 26.4918 124.639 25.3393 123.661 23.8773C122.682 22.4152 122.14 20.7043 122.1 18.9453C123.169 18.9453 124.243 18.9513 125.319 18.9513C125.396 20.0438 125.739 21.1008 126.319 22.0303C126.898 22.9598 127.695 23.7336 128.642 24.2843C130.57 25.2394 132.67 25.7966 134.817 25.9227C136.965 26.0488 139.116 25.7412 141.142 25.0183C143.272 24.3423 145.057 22.2573 144.66 19.9543C144.126 17.8703 141.976 16.8803 140.054 16.3853C135.304 15.1853 129.994 15.6513 125.72 12.9633C122.667 11.0653 122.361 6.60631 124.316 3.84031Z" fill="#5C6064"/>
<path d="M4.00098 5.36495C7.74698 1.85295 13.044 -0.586056 18.276 0.693944C20.1381 0.982683 21.8459 1.89824 23.1171 3.28925C24.3883 4.68026 25.1467 6.46343 25.267 8.34395C25.586 14.7569 25.332 21.1899 25.404 27.6109H22.16C22.095 21.6599 22.26 15.7109 22.075 9.76494C21.997 7.06494 20.401 4.20695 17.547 3.62195C12.335 2.15495 7.61797 5.72194 4.02097 9.01294C4.02031 7.79694 4.01364 6.58095 4.00098 5.36495Z" fill="#5C6064"/>
<path d="M92.1251 0.946289C93.1991 0.946289 94.2681 0.952294 95.3431 0.965294C95.3891 7.10229 95.2521 13.2463 95.4021 19.3833C95.4016 20.8045 95.9015 22.1805 96.8141 23.2699C97.7267 24.3594 98.9938 25.0927 100.393 25.3413C105.455 26.3823 109.945 23.0763 113.371 19.8083C113.461 21.0684 113.394 22.3348 113.171 23.5783C109.992 26.6983 105.509 28.8083 100.949 28.3193C99.5385 28.311 98.1489 27.9768 96.8887 27.343C95.6285 26.7092 94.5318 25.7928 93.6841 24.6653C92.2371 22.5423 92.0101 19.8923 92.0941 17.4023C92.1381 11.9203 92.0851 6.43329 92.1251 0.946289Z" fill="#5C6064"/>
<path d="M114.439 0.977623C115.559 0.958623 116.68 0.946617 117.808 0.932617C117.827 9.82262 117.829 18.713 117.814 27.6036C116.693 27.6036 115.574 27.6106 114.459 27.6106C114.425 18.7336 114.464 9.85162 114.439 0.977623Z" fill="#5C6064"/>
<path d="M0 2.39941C1.04867 2.40541 2.09766 2.41375 3.147 2.42442C3.153 11.2831 3.155 20.1418 3.153 29.0004H0V2.39941Z" fill="#5C6064"/>
<path d="M58.467 1.0427C59.9 1.0047 61.334 0.990703 62.767 0.970703C66.174 4.3487 69.341 7.9577 72.774 11.3097C72.8 12.0557 72.826 12.8017 72.846 13.5487L70.572 13.5677C66.514 9.41171 62.533 5.1857 58.467 1.0427Z" fill="#47C6F4"/>
<path d="M83.4251 1.98191C84.6441 0.290908 86.9441 1.21691 88.6831 0.981908C84.8071 5.23491 80.7351 9.30692 76.8461 13.5529C76.2791 13.5529 75.1461 13.5649 74.5781 13.5719C74.5721 13.0439 74.5651 11.9899 74.5581 11.4559C77.4521 8.24091 80.4891 5.15191 83.4251 1.98191Z" fill="#EB1552"/>
<path d="M70.5591 15.4854C71.3151 15.4914 72.071 15.4913 72.826 15.4973C72.8201 15.9973 72.8131 16.9973 72.8071 17.4973C69.5951 20.8093 66.4224 24.161 63.289 27.5524C61.8617 27.565 60.4347 27.565 59.0081 27.5524C62.8194 23.4997 66.6697 19.4774 70.5591 15.4854Z" fill="#FFC423"/>
<path d="M74.5471 15.4915C75.1271 15.4915 76.2801 15.4855 76.8531 15.4785C80.6781 19.4735 84.5021 23.4785 88.2351 27.5535C86.5681 27.3415 84.3201 28.3055 83.1211 26.7615C80.2871 23.6355 77.3681 20.5985 74.5411 17.4615C74.5401 16.9775 74.5471 15.9865 74.5471 15.4915Z" fill="#6CBE6E"/>
</svg>
