<svg width="181" height="46" viewBox="0 0 181 46" fill="none" xmlns="http://www.w3.org/2000/svg">
<path d="M45.641 46H0V0H45.641V46ZM27.965 22.923C28.0583 22.8722 28.1461 22.8119 28.227 22.743L37.164 13.767C37.222 13.709 37.279 13.661 37.332 13.603L38.296 12.631L33.144 7.439C33.113 7.465 33.06 7.513 33.013 7.561C29.6843 10.9097 26.3593 14.256 23.038 17.6C22.9867 17.6645 22.9412 17.7335 22.902 17.806C22.8101 17.7415 22.7226 17.671 22.64 17.595C19.3273 14.2617 16.018 10.9227 12.712 7.578C12.6552 7.50947 12.6059 7.43504 12.565 7.356L7.349 12.616L17.691 23.04C14.2243 26.5107 10.7823 29.9607 7.365 33.39C9.084 35.133 10.798 36.872 12.539 38.631C12.591 38.562 12.649 38.483 12.712 38.414C16.0193 35.0807 19.327 31.7473 22.635 28.414C22.703 28.345 22.777 28.287 22.845 28.214C22.918 28.288 22.997 28.357 23.07 28.431C26.3513 31.7437 29.6327 35.0527 32.914 38.358C32.9945 38.4537 33.0696 38.5539 33.139 38.658C34.869 36.867 36.551 35.129 38.239 33.38C38.229 33.369 38.187 33.317 38.139 33.269C34.8157 29.9143 31.4907 26.563 28.164 23.215C28.1016 23.1616 28.0347 23.1138 27.964 23.072C27.965 23.029 27.965 22.976 27.965 22.923Z" fill="#FEFEFE"/>
<path d="M22.8441 28.2219C22.7761 28.2849 22.7021 28.3489 22.6341 28.4219C19.3268 31.7552 16.0208 35.0886 12.7161 38.4219C12.6537 38.4903 12.5959 38.5628 12.5431 38.6389C10.7971 36.8739 9.08312 35.1389 7.36412 33.3979C10.7768 29.9746 14.2188 26.5246 17.6901 23.0479L7.34912 12.6159L12.5651 7.35889C12.6041 7.43904 12.6536 7.51368 12.7121 7.58089C16.0195 10.9269 19.3285 14.2666 22.6391 17.5999C22.7181 17.6789 22.8121 17.7369 22.9011 17.8109C22.9346 17.8688 22.9731 17.9237 23.0161 17.9749C24.6095 19.5862 26.2065 21.1976 27.8071 22.8089C27.8577 22.8506 27.9119 22.8878 27.9691 22.9199C27.9691 22.9729 27.9641 23.0259 27.9641 23.0779C27.9079 23.1156 27.8539 23.1563 27.8021 23.1999C26.8641 24.1459 25.9201 25.0909 24.9821 26.0419C24.2641 26.7639 23.5571 27.4999 22.8441 28.2219Z" fill="#161616"/>
<path d="M27.965 22.923C27.9078 22.8909 27.8536 22.8537 27.803 22.812C26.203 21.2007 24.606 19.5893 23.012 17.978C22.9707 17.9255 22.9323 17.8707 22.897 17.814C22.9362 17.7415 22.9817 17.6725 23.033 17.608C26.3563 14.2587 29.6813 10.9093 33.008 7.55999C33.055 7.51199 33.108 7.45999 33.139 7.43799L38.292 12.631L37.328 13.603C37.27 13.661 37.213 13.709 37.16 13.767C34.1826 16.757 31.2053 19.749 28.228 22.743C28.1455 22.8102 28.0575 22.8704 27.965 22.923Z" fill="#999999"/>
<path d="M22.8438 28.2221C23.5564 27.4928 24.2694 26.7655 24.9827 26.0401C25.9207 25.0895 26.8597 24.1428 27.7997 23.2001C27.8505 23.1553 27.9047 23.1145 27.9618 23.0781C28.0324 23.1199 28.0994 23.1677 28.1618 23.2211C31.4904 26.5705 34.8154 29.9218 38.1368 33.2751C38.1727 33.3097 38.2061 33.3468 38.2367 33.3861C36.5437 35.1401 34.8608 36.8781 33.1368 38.6691C33.0674 38.565 32.9923 38.4649 32.9117 38.3691C29.6251 35.0618 26.3421 31.7528 23.0627 28.4421C22.9997 28.3651 22.9167 28.3001 22.8438 28.2221Z" fill="#999999"/>
<path d="M148.06 7.23779H171.271C171.282 7.27761 171.289 7.3185 171.292 7.35979V12.9128C171.292 12.9448 171.287 12.9758 171.282 13.0288C171.23 13.0338 171.182 13.0448 171.135 13.0448C171.067 13.0498 170.999 13.0448 170.935 13.0448H153.847C153.824 13.0793 153.808 13.1182 153.799 13.1591C153.791 13.1999 153.792 13.242 153.8 13.2828V19.7998C153.8 19.8898 153.805 19.9848 153.805 20.0588C153.816 20.0685 153.829 20.0772 153.842 20.0848C153.847 20.0898 153.858 20.0898 153.868 20.0958C153.878 20.1018 153.884 20.1008 153.894 20.1008H168.954C168.971 20.1045 168.989 20.1081 169.006 20.1118C169.011 20.1168 169.022 20.1228 169.032 20.1328L169.042 20.1438C169.047 20.1516 169.048 20.1608 169.047 20.1698C169.047 22.0558 169.052 23.9368 169.052 25.8228C169.052 25.8488 169.042 25.8708 169.036 25.9128C168.989 25.9191 168.941 25.9228 168.894 25.9238H153.863C153.826 26.0139 153.813 26.1122 153.826 26.2088V32.7548C153.826 32.8398 153.831 32.9188 153.836 32.9868C153.857 33.0028 153.867 33.0078 153.873 33.0128C153.881 33.0174 153.89 33.0192 153.899 33.0178C153.909 33.0178 153.915 33.0228 153.925 33.0228H171.24C171.249 33.0219 171.258 33.0237 171.266 33.0278C171.276 33.0278 171.282 33.0328 171.292 33.0328C171.355 33.0958 171.329 33.1758 171.329 33.2438V38.5438C171.329 38.6288 171.324 38.7078 171.319 38.7818C171.288 38.7928 171.272 38.8078 171.261 38.8078C163.561 38.8078 155.861 38.8095 148.161 38.8128C148.14 38.8128 148.114 38.8018 148.098 38.8018C148.082 38.7858 148.077 38.7858 148.072 38.7758C148.067 38.7679 148.066 38.7588 148.067 38.7498V7.31179C148.034 7.29079 148.045 7.27479 148.06 7.23779Z" fill="#161616"/>
<path d="M119.613 38.8102C119.608 38.7412 119.603 38.6782 119.603 38.6102C119.603 36.8102 119.602 35.0102 119.598 33.2102C119.599 33.0671 119.653 32.9294 119.75 32.8242C121.407 30.8168 123.061 28.8075 124.714 26.7962L133.452 16.1822C134.243 15.2208 135.035 14.2575 135.827 13.2922C135.893 13.2341 135.945 13.162 135.979 13.0812C135.963 13.0602 135.963 13.0552 135.958 13.0492C135.952 13.0451 135.945 13.0433 135.937 13.0442C135.92 13.0448 135.902 13.0431 135.885 13.0392H119.655C119.641 13.0352 119.627 13.0299 119.613 13.0232C119.605 12.9796 119.599 12.9355 119.597 12.8912V7.39118C119.597 7.34918 119.602 7.30618 119.607 7.25418C119.655 7.24237 119.705 7.23534 119.754 7.23318C119.812 7.22818 119.869 7.23318 119.932 7.23318H142.786C142.832 7.31129 142.847 7.40363 142.828 7.49218V12.5372C142.828 12.6532 142.823 12.7752 142.828 12.8912C142.832 12.9453 142.825 12.9997 142.808 13.0512C142.791 13.1026 142.764 13.1502 142.728 13.1912C142.309 13.6982 141.895 14.2052 141.475 14.7132C138.87 17.8938 136.263 21.0725 133.654 24.2492C131.321 27.0965 128.988 29.9442 126.654 32.7922C126.602 32.8552 126.533 32.9082 126.518 32.9822C126.526 32.9941 126.533 33.0065 126.539 33.0192C126.547 33.0238 126.556 33.0256 126.565 33.0242H142.783C142.792 33.0233 142.801 33.0251 142.809 33.0292C142.814 33.0342 142.825 33.0402 142.846 33.0552C142.846 33.0972 142.856 33.1552 142.856 33.2132C142.882 35.3002 142.866 38.5912 142.835 38.8132C142.819 38.8182 142.804 38.8342 142.793 38.8342H119.718C119.682 38.833 119.646 38.8248 119.613 38.8102Z" fill="#161616"/>
<path d="M75.3671 14.2999C75.046 12.8769 74.3867 11.5522 73.445 10.4381C72.5032 9.32403 71.3068 8.45336 69.9571 7.89989C68.835 7.44599 67.6344 7.21797 66.4241 7.22889H53.3411C53.2941 7.23389 53.2411 7.21789 53.1941 7.26089C53.1878 7.28132 53.1845 7.30253 53.1841 7.32389V38.6929C53.1851 38.7067 53.1907 38.7197 53.2001 38.7299C53.2101 38.7409 53.2161 38.7509 53.2211 38.7509C53.2629 38.7552 53.305 38.7569 53.3471 38.7559C55.1924 38.7559 57.0374 38.7542 58.8821 38.7509C58.8895 38.7518 58.8969 38.75 58.9031 38.7459L58.9401 38.7089V26.6849C58.9401 26.2849 58.9301 25.8769 58.9451 25.4429H66.4771C67.1237 25.4452 67.7687 25.3782 68.4011 25.2429C70.1746 24.8809 71.794 23.9827 73.0401 22.6699C74.0857 21.5732 74.8449 20.2359 75.2508 18.776C75.6566 17.3162 75.6966 15.7788 75.3671 14.2999ZM67.2531 19.5999C66.9827 19.6578 66.7065 19.6843 66.4301 19.6789H59.2381C59.1491 19.6789 59.0601 19.6739 58.9551 19.6739C58.9501 19.5999 58.9451 19.5419 58.9451 19.4839C58.9191 17.1439 58.9351 13.2919 58.9661 13.0439C59.0534 13.0227 59.1438 13.0173 59.2331 13.0279H63.6831C64.6061 13.0279 65.5281 13.0329 66.4511 13.0279C66.9656 13.0129 67.4763 13.1217 67.9401 13.3449C68.4429 13.5779 68.8783 13.9348 69.2055 14.382C69.5327 14.8292 69.7411 15.3522 69.8111 15.9019C69.9267 16.7276 69.728 17.5665 69.2542 18.2526C68.7804 18.9386 68.0662 19.4216 67.2531 19.6059V19.5999Z" fill="#161616"/>
<path d="M114.025 38.7409C113.998 38.7511 113.97 38.7581 113.941 38.7619H108.358C108.331 38.7593 108.304 38.7522 108.279 38.7409C108.271 38.7081 108.266 38.6746 108.263 38.6409V7.26991C108.34 7.22367 108.432 7.20865 108.52 7.22791H113.982C114.05 7.28591 114.034 7.33891 114.04 7.38591C114.046 7.43291 114.04 7.50191 114.04 7.56591V38.4459C114.03 38.5439 114.025 38.6424 114.025 38.7409Z" fill="#161616"/>
<path d="M85.4572 38.7668C85.4788 38.7687 85.5006 38.7654 85.5206 38.7571C85.5407 38.7487 85.5584 38.7355 85.5722 38.7188C85.5775 38.7129 85.581 38.7056 85.5822 38.6978C85.581 38.7056 85.5775 38.7129 85.5722 38.7188C85.5584 38.7355 85.5407 38.7487 85.5206 38.7571C85.5006 38.7654 85.4788 38.7687 85.4572 38.7668Z" fill="white"/>
<path d="M102.881 38.456C101.502 35.856 100.125 33.256 98.75 30.656C97.812 28.8853 96.874 27.1127 95.936 25.338C95.8826 25.2657 95.8451 25.1829 95.826 25.095C95.8355 25.089 95.8442 25.082 95.852 25.074C95.899 25.058 95.946 25.037 95.994 25.021C97.3486 24.5735 98.5739 23.803 99.564 22.776C100.621 21.7013 101.397 20.3821 101.822 18.9357C102.248 17.4892 102.309 15.9601 102.002 14.4841C101.694 13.0082 101.027 11.631 100.059 10.4747C99.0917 9.31846 97.8537 8.41895 96.455 7.85599C95.3596 7.4275 94.1923 7.21231 93.016 7.22199H79.906C79.8687 7.22529 79.8319 7.23233 79.796 7.24299V38.635C79.7975 38.6721 79.8008 38.7092 79.806 38.746C79.906 38.751 79.995 38.757 80.084 38.757H85.368C85.394 38.757 85.415 38.762 85.441 38.762C85.4627 38.764 85.4844 38.7607 85.5045 38.7523C85.5245 38.7439 85.5422 38.7308 85.556 38.714C85.5614 38.7081 85.5648 38.7008 85.566 38.693V25.554C85.566 25.538 85.571 25.522 85.571 25.501C85.5702 25.492 85.5719 25.483 85.576 25.475C85.582 25.4684 85.5891 25.463 85.597 25.459C85.849 25.433 89.597 25.433 89.827 25.464C92.1604 29.8807 94.4964 34.306 96.835 38.74C96.935 38.74 97.024 38.745 97.113 38.745H102.848C102.895 38.745 102.948 38.761 102.99 38.692C102.963 38.6095 102.926 38.5303 102.881 38.456ZM93.839 19.611C93.5758 19.6647 93.3076 19.6895 93.039 19.685H85.6C85.569 19.426 85.574 13.266 85.6 13.034C85.652 13.034 85.71 13.029 85.768 13.029H93.091C93.533 13.0204 93.9721 13.1022 94.3814 13.2693C94.7906 13.4365 95.1614 13.6854 95.471 14.001C96.0207 14.5466 96.3603 15.2686 96.43 16.04C96.5091 16.849 96.2892 17.659 95.8119 18.3169C95.3345 18.9749 94.6327 19.4352 93.839 19.611Z" fill="#161616"/>
<path d="M180.963 9.40019C180.948 9.30931 180.927 9.21947 180.9 9.13119C180.695 8.48289 180.251 7.93692 179.658 7.60419C179.002 7.2287 178.225 7.12429 177.493 7.31319C177.037 7.40771 176.614 7.62056 176.266 7.93038C175.918 8.24019 175.658 8.63605 175.512 9.07819C175.249 9.78133 175.256 10.5573 175.533 11.2552C175.781 11.9185 176.28 12.4575 176.922 12.7552C177.218 12.8933 177.535 12.9809 177.86 13.0142C178.6 13.1107 179.349 12.9136 179.946 12.4652C180.484 12.0735 180.848 11.4884 180.963 10.8332C180.963 10.8222 180.989 10.8172 181 10.8072V9.48319C180.995 9.45719 180.969 9.43019 180.963 9.40019ZM179.883 11.8202C179.683 12.0353 179.441 12.2081 179.173 12.3283C178.905 12.4486 178.615 12.5138 178.321 12.5202C178.019 12.538 177.716 12.4966 177.43 12.3982C177.09 12.2855 176.782 12.0922 176.533 11.8349C176.284 11.5775 176.101 11.2637 176 10.9202C175.835 10.4174 175.835 9.87497 176 9.37219C176.114 8.96441 176.344 8.59858 176.662 8.31941C176.98 8.04024 177.373 7.85982 177.792 7.80019C178.185 7.71641 178.594 7.74202 178.974 7.87425C179.354 8.00648 179.69 8.24026 179.946 8.55019C180.334 9.00763 180.536 9.59396 180.512 10.1932C180.515 10.7966 180.29 11.3789 179.883 11.8242V11.8202Z" fill="#161616"/>
<path d="M179.04 10.6771C179.016 10.6364 178.995 10.594 178.977 10.5501C179.008 10.5241 179.029 10.5081 179.05 10.4921C179.245 10.3544 179.39 10.1556 179.46 9.92696C179.53 9.69834 179.522 9.45288 179.438 9.22912C179.374 9.02612 179.247 8.84877 179.076 8.72288C178.904 8.59699 178.697 8.52911 178.484 8.52912C178.049 8.50312 177.614 8.52412 177.163 8.52412C177.154 8.55682 177.149 8.59033 177.147 8.62412C177.147 9.61212 177.152 10.6001 177.152 11.5881C177.151 11.5971 177.153 11.6061 177.157 11.6141C177.169 11.6256 177.181 11.6363 177.194 11.6461C177.407 11.6651 177.622 11.658 177.834 11.6251C177.834 11.4561 177.829 11.2971 177.834 11.1341C177.823 10.9772 177.83 10.8194 177.855 10.6641H178.255C178.486 10.9861 178.674 11.3351 178.9 11.6471H179.571C179.58 11.648 179.589 11.6462 179.597 11.6421C179.602 11.6371 179.607 11.6261 179.623 11.6051C179.607 11.565 179.587 11.5262 179.565 11.4891C179.38 11.2161 179.207 10.9471 179.04 10.6771ZM178.794 9.78412C178.772 9.84354 178.734 9.89554 178.684 9.934C178.634 9.97245 178.574 9.99574 178.511 10.0011C178.296 10.0271 178.076 10.0121 177.851 10.0171C177.822 9.88355 177.813 9.74633 177.825 9.61012C177.818 9.46726 177.823 9.32404 177.841 9.18212C178.056 9.18212 178.25 9.17112 178.441 9.18212C178.511 9.18359 178.579 9.20297 178.64 9.23842C178.7 9.27386 178.75 9.32419 178.785 9.38459C178.821 9.44498 178.84 9.51343 178.841 9.58338C178.843 9.65333 178.826 9.72245 178.793 9.78412H178.794Z" fill="#161616"/>
</svg>
